<svg xmlns="http://www.w3.org/2000/svg" viewBox="0 0 16 20.49"><path d="M15,18.49H14v-6a6,6,0,0,0-12,0v6H1a1,1,0,0,0,0,2H15a1,1,0,0,0,0-2Zm-5.5-6A1.5,1.5,0,1,1,11,11,1.5,1.5,0,0,1,9.5,12.49Z" style="fill:#eb651c"/><path d="M9.15.65V3.76a.65.65,0,1,1-1.3,0V.65a.65.65,0,0,1,1.3,0ZM4.56,1.88a.65.65,0,1,0-1.12.65L5,5.23a.67.67,0,0,0,.57.32.62.62,0,0,0,.32-.09.64.64,0,0,0,.24-.88Zm8.32-.24a.65.65,0,0,0-.89.24l-1.55,2.7a.64.64,0,0,0,.23.88.68.68,0,0,0,.33.09.64.64,0,0,0,.56-.32l1.56-2.7A.65.65,0,0,0,12.88,1.64Z" style="fill:#222"/></svg>